<?xml version="1.0" encoding="UTF-8"?>
<svg version="1.1" xmlns="http://www.w3.org/2000/svg" width="580" height="430">
<path d="M0 0 C0.92095459 -0.00386719 1.84190918 -0.00773437 2.79077148 -0.01171875 C10.4070011 0.11476824 16.8819297 1.67784196 23.97265625 4.34375 C27.19871631 5.65602935 27.19871631 5.65602935 31.125 5.4375 C31.125 6.0975 31.125 6.7575 31.125 7.4375 C31.764375 7.664375 32.40375 7.89125 33.0625 8.125 C36.50437321 9.60008852 39.68888931 11.36983222 42.94140625 13.21875 C45.09331227 14.45478637 45.09331227 14.45478637 47.28125 15.44140625 C49.125 16.4375 49.125 16.4375 51.0625 18.875 C53.23894313 21.57906571 55.11177015 22.78022358 58.125 24.4375 C58.7025 24.97375 59.28 25.51 59.875 26.0625 C63.36557579 28.19562965 67.10263071 28.18825062 71.125 28.4375 C71.455 27.7775 71.785 27.1175 72.125 26.4375 C74.453125 26.05859375 74.453125 26.05859375 77.375 25.875 C81.40025356 25.61417055 81.40025356 25.61417055 85.36584473 24.9302063 C88.66467966 24.34112863 91.77894276 24.31026457 95.13085938 24.30810547 C95.81606155 24.30635315 96.50126373 24.30460083 97.20722961 24.30279541 C99.46109588 24.2984119 101.714883 24.30130252 103.96875 24.3046875 C105.54146337 24.30401346 107.11417664 24.30304259 108.68688965 24.30178833 C111.97860712 24.3003161 115.27029741 24.30245066 118.56201172 24.30712891 C122.77524734 24.3128259 126.98841924 24.30954436 131.20165253 24.30355644 C134.44790118 24.29993803 137.6941348 24.30109531 140.94038391 24.30368423 C142.49367785 24.30434996 144.04697317 24.3035375 145.6002655 24.30120468 C147.77326051 24.29865714 149.94615321 24.30254832 152.11914062 24.30810547 C153.35426392 24.30890106 154.58938721 24.30969666 155.86193848 24.31051636 C158.76351021 24.42343245 161.30764647 24.77661038 164.125 25.4375 C169.19331226 26.44776381 174.26283686 27.45155511 179.33374023 28.44873047 C180.97763083 28.77287791 182.62119084 29.09870672 184.2644043 29.42626953 C196.14502051 31.86262761 196.14502051 31.86262761 208.19067383 33.14648438 C210.46394443 33.48849353 212.09807173 34.38020251 214.125 35.4375 C214.785 35.4375 215.445 35.4375 216.125 35.4375 C216.125 36.0975 216.125 36.7575 216.125 37.4375 C216.91261719 37.52 217.70023437 37.6025 218.51171875 37.6875 C223.2807229 38.67739059 227.4847008 40.49476981 231.9375 42.4375 C232.86530273 42.84049316 233.79310547 43.24348633 234.74902344 43.65869141 C249.76028439 50.27404141 263.51129108 58.31570801 277.125 67.4375 C278.24468892 68.18244612 279.3644721 68.9272506 280.484375 69.671875 C284.86257269 72.59930896 288.41101028 75.69238746 292.125 79.4375 C293.21173936 80.52523958 294.29900227 81.61245627 295.38671875 82.69921875 C307.45833333 94.77083333 307.45833333 94.77083333 311.125 99.4375 C311.99125 100.5203125 311.99125 100.5203125 312.875 101.625 C314.125 103.4375 314.125 103.4375 314.125 105.4375 C314.785 105.7675 315.445 106.0975 316.125 106.4375 C317.17308041 108.41272846 318.1770411 110.41231509 319.125 112.4375 C319.785 112.4375 320.445 112.4375 321.125 112.4375 C321.785 115.4075 322.445 118.3775 323.125 121.4375 C327.745 119.1275 332.365 116.8175 337.125 114.4375 C337.125 113.1175 337.125 111.7975 337.125 110.4375 C336.465 110.1075 335.805 109.7775 335.125 109.4375 C331.42256484 100.07951023 330.58761543 89.92412225 334.125 80.4375 C335.9765342 78.40028185 337.85463773 77.05918734 340.125 75.4375 C340.66125 74.86 341.1975 74.2825 341.75 73.6875 C344.57891589 71.11575828 348.22345234 71.32130077 351.875 71.375 C352.67421875 71.38402344 353.4734375 71.39304687 354.296875 71.40234375 C354.90015625 71.41394531 355.5034375 71.42554688 356.125 71.4375 C356.125 72.0975 356.125 72.7575 356.125 73.4375 C356.8675 73.53675781 357.61 73.63601562 358.375 73.73828125 C363.00790508 74.91625001 365.75948833 78.18780553 369.125 81.4375 C370.07375 82.2625 371.0225 83.0875 372 83.9375 C375.80340092 88.67234605 376.17766297 96.60507598 376.125 102.4375 C374.80859375 104.70703125 374.80859375 104.70703125 373.125 106.4375 C372.320625 107.448125 371.51625 108.45875 370.6875 109.5 C368.56722492 111.93055924 366.71121095 113.58706881 364.125 115.4375 C371.45057399 115.66061393 378.06410871 115.52104169 385.125 113.4375 C385.455 112.7775 385.785 112.1175 386.125 111.4375 C387.45833333 110.77083333 388.79166667 110.10416667 390.125 109.4375 C392.4972778 107.82374021 394.81434642 106.13803718 397.125 104.4375 C397.53492188 104.93121094 397.94484375 105.42492187 398.3671875 105.93359375 C398.90601563 106.57425781 399.44484375 107.21492188 400 107.875 C400.53367187 108.51308594 401.06734375 109.15117187 401.6171875 109.80859375 C403.0472757 111.54555004 403.0472757 111.54555004 405.125 112.4375 C403.78425162 116.45974515 401.3974102 117.83292862 398.125 120.4375 C397.465 121.0975 396.805 121.7575 396.125 122.4375 C393.53079064 123.54889269 390.95426545 124.57918926 388.3125 125.5625 C387.60029297 125.83964844 386.88808594 126.11679688 386.15429688 126.40234375 C382.35355423 127.82981971 379.25342294 128.81059913 375.125 128.4375 C375.125 129.0975 375.125 129.7575 375.125 130.4375 C372.87526553 130.491638 370.62515617 130.53035491 368.375 130.5625 C367.12203125 130.58570313 365.8690625 130.60890625 364.578125 130.6328125 C361.30024667 130.44741214 359.8315983 130.14165448 357.125 128.4375 C355.81644582 127.70127568 354.50391563 126.97207352 353.1875 126.25 C352.53910156 125.88519531 351.89070313 125.52039063 351.22265625 125.14453125 C348.44683312 124.20891861 346.9115033 124.58868822 344.125 125.4375 C341.72080806 126.60068018 341.72080806 126.60068018 339.4375 128 C335.32896601 130.4375 335.32896601 130.4375 333.125 130.4375 C332.795 131.0975 332.465 131.7575 332.125 132.4375 C331.135 132.7675 330.145 133.0975 329.125 133.4375 C329.39054687 134.3346875 329.65609375 135.231875 329.9296875 136.15625 C339.33695056 169.39066842 335.69995415 204.99002987 319.125 235.4375 C318.83109375 236.10136719 318.5371875 236.76523437 318.234375 237.44921875 C316.8706542 239.89335215 315.1291831 241.4885793 313.125 243.4375 C311.77750754 245.11371541 310.44521805 246.80221959 309.125 248.5 C297.96252335 262.22435653 284.43576531 272.5916462 268.125 279.4375 C268.44210937 280.365625 268.75921875 281.29375 269.0859375 282.25 C271.84417263 290.71135287 272.79702853 301.89125001 270.125 310.4375 C269.465 310.4375 268.805 310.4375 268.125 310.4375 C267.795 311.0975 267.465 311.7575 267.125 312.4375 C264.6753538 313.50735765 262.25925466 314.46685901 259.75 315.375 C259.02844727 315.64078857 258.30689453 315.90657715 257.56347656 316.18041992 C251.83021132 318.25869671 246.05218554 319.99715246 240.125 321.4375 C239.53936279 321.58461426 238.95372559 321.73172852 238.3503418 321.88330078 C233.30766136 323.13913014 228.24928712 324.323919 223.1875 325.5 C222.02669922 325.78166016 220.86589844 326.06332031 219.66992188 326.35351562 C199.78821698 330.92287796 199.78821698 330.92287796 191.125 326.0625 C185.61353882 321.81745913 183.27059515 315.87428545 181.125 309.4375 C180.43092041 309.44797363 179.73684082 309.45844727 179.02172852 309.46923828 C149.06441272 309.85215681 118.90059355 308.90578475 89.125 305.4375 C88.63512826 307.02515205 88.14884425 308.61391136 87.6640625 310.203125 C87.39287598 311.08774414 87.12168945 311.97236328 86.84228516 312.88378906 C86.02633831 315.61144088 86.02633831 315.61144088 85.5 319.1875 C83.45522773 324.02059809 79.75977069 326.17700628 75.125 328.4375 C70.36790946 330.04250098 66.151087 328.94699112 61.375 327.9375 C60.50810547 327.75807861 59.64121094 327.57865723 58.74804688 327.39379883 C43.63368508 324.15061996 28.74347581 319.82546062 14.125 314.8125 C12.95227539 314.41550903 12.95227539 314.41550903 11.75585938 314.01049805 C5.46649686 311.78131382 -1.36250329 309.1784055 -5.9375 304.1875 C-8.40898829 296.93780102 -6.68858995 290.33298209 -3.875 283.4375 C-2.875 281.4375 -2.875 281.4375 -0.875 279.4375 C-1.80441406 278.92960937 -2.73382813 278.42171875 -3.69140625 277.8984375 C-10.34060008 274.21322309 -16.22950246 270.58117554 -21.875 265.4375 C-22.865 265.1075 -23.855 264.7775 -24.875 264.4375 C-26.453125 262.87109375 -26.453125 262.87109375 -28.125 260.875 C-30.78460948 257.70941845 -30.78460948 257.70941845 -33.5703125 254.65625 C-37.56542014 250.41957771 -40.66984806 245.83101099 -43.6875 240.875 C-44.26540283 239.93708618 -44.26540283 239.93708618 -44.85498047 238.98022461 C-46.6933444 235.87895272 -48.09405758 233.03190014 -49.01171875 229.53515625 C-49.29660156 228.51292969 -49.58148438 227.49070312 -49.875 226.4375 C-50.535 226.1075 -51.195 225.7775 -51.875 225.4375 C-52.46923828 223.75097656 -52.46923828 223.75097656 -52.9453125 221.578125 C-53.11933594 220.79179687 -53.29335937 220.00546875 -53.47265625 219.1953125 C-53.64667969 218.36773437 -53.82070312 217.54015625 -54 216.6875 C-54.18175781 215.87539063 -54.36351562 215.06328125 -54.55078125 214.2265625 C-55.42288019 210.20048168 -55.96848755 206.57455093 -55.875 202.4375 C-57.09848145 202.46106567 -57.09848145 202.46106567 -58.34667969 202.48510742 C-61.43308062 202.53686775 -64.51925715 202.57415214 -67.60595703 202.60229492 C-69.57469568 202.6244343 -71.54323362 202.66259352 -73.51171875 202.70117188 C-93.09104236 202.85025302 -93.09104236 202.85025302 -98.69921875 197.79223633 C-109.94546152 183.37771082 -105.53127194 155.79989109 -103.55859375 138.98046875 C-102.57157402 131.80440997 -100.96618073 126.04020444 -95.5625 121 C-85.08403103 113.12446281 -73.23982195 114.34213799 -60.8125 114.875 C-59.45640424 114.92834874 -58.10028435 114.98108774 -56.74414062 115.03320312 C-53.45414043 115.16199317 -50.16451383 115.29691704 -46.875 115.4375 C-46.68031128 114.07129517 -46.68031128 114.07129517 -46.48168945 112.67749023 C-45.96848319 109.93674159 -45.4192143 108.04021735 -44.16796875 105.59765625 C-43.6584668 104.5912207 -43.6584668 104.5912207 -43.13867188 103.56445312 C-42.78353516 102.88318359 -42.42839844 102.20191406 -42.0625 101.5 C-41.71896484 100.82259766 -41.37542969 100.14519531 -41.02148438 99.44726562 C-34.28544235 86.26585507 -25.79074662 75.46458077 -13.875 66.4375 C-13.215 65.7775 -12.555 65.1175 -11.875 64.4375 C-9.88128175 63.09479179 -7.8815438 61.76096506 -5.875 60.4375 C-3.94564699 58.50814699 -4.61182698 55.18740699 -4.5625 52.625 C-4.5625 38.58994302 -11.17119954 24.99320069 -18.875 13.4375 C-19.41240341 9.97578452 -19.57985319 6.61225532 -17.75 3.5625 C-12.12346189 0.18657713 -6.37270774 0.0185001 0 0 Z M-4.875 12.4375 C-3.885 12.7675 -2.895 13.0975 -1.875 13.4375 C-2.205 14.4275 -2.535 15.4175 -2.875 16.4375 C-2.31183081 18.32916708 -2.31183081 18.32916708 -1.29296875 20.2734375 C-0.93783203 21.00820312 -0.58269531 21.74296875 -0.21679688 22.5 C0.35458008 23.6446875 0.35458008 23.6446875 0.9375 24.8125 C2.34126253 27.68372109 3.73602095 30.55910297 5.125 33.4375 C5.72828125 34.67306641 5.72828125 34.67306641 6.34375 35.93359375 C7.49703706 39.62987878 7.64183118 43.27196162 7.8125 47.125 C7.86893677 48.32286133 7.86893677 48.32286133 7.92651367 49.54492188 C8.4612414 62.80940214 8.4612414 62.80940214 7.125 66.4375 C5.31640625 67.48046875 5.31640625 67.48046875 3.125 68.4375 C1.80043495 69.50197839 0.50954499 70.60932773 -0.75 71.75 C-3.19637968 73.94126374 -5.64837596 76.10427853 -8.1875 78.1875 C-10.75561017 80.2703017 -10.75561017 80.2703017 -12.5 82.0625 C-13.875 83.4375 -13.875 83.4375 -16.0625 84.9375 C-16.660625 85.4325 -17.25875 85.9275 -17.875 86.4375 C-17.875 87.4275 -17.875 88.4175 -17.875 89.4375 C-19.855 90.4275 -19.855 90.4275 -21.875 91.4375 C-21.875 92.0975 -21.875 92.7575 -21.875 93.4375 C-22.47054687 94.02660156 -23.06609375 94.61570312 -23.6796875 95.22265625 C-26.05544554 97.61955093 -27.42377416 99.89997688 -29 102.875 C-29.49757812 103.80183594 -29.99515625 104.72867188 -30.5078125 105.68359375 C-31.7745302 108.23512512 -32.83319525 110.78822307 -33.875 113.4375 C-34.80585559 115.53325486 -35.76547066 117.61641755 -36.75 119.6875 C-37.48863281 121.27304688 -37.48863281 121.27304688 -38.2421875 122.890625 C-39.875 125.4375 -39.875 125.4375 -41.46435547 126.08569336 C-44.99638433 126.60115352 -48.51660404 126.59385827 -52.078125 126.61328125 C-53.71485651 126.63648666 -55.35157529 126.66060429 -56.98828125 126.68554688 C-59.55330858 126.72056682 -62.11786878 126.74996257 -64.68310547 126.76342773 C-67.16951354 126.77901274 -69.65457749 126.81928857 -72.140625 126.86328125 C-72.89611633 126.86137283 -73.65160767 126.85946442 -74.42999268 126.85749817 C-79.8315395 126.9799818 -84.47639304 128.15974309 -88.875 131.4375 C-90.83911162 135.85675115 -90.98608742 139.66074115 -90.875 144.4375 C-91.37 145.4275 -91.37 145.4275 -91.875 146.4375 C-91.97394636 149.08963595 -92.01483438 151.71490909 -92.0078125 154.3671875 C-92.00876923 155.15392853 -92.00972595 155.94066956 -92.01071167 156.75125122 C-92.01139274 158.41733887 -92.00954352 160.08342916 -92.00537109 161.74951172 C-92.00003603 164.29530846 -92.00531114 166.84092762 -92.01171875 169.38671875 C-92.01105768 171.00520872 -92.00977591 172.62369858 -92.0078125 174.2421875 C-92.00983673 175.0027243 -92.01186096 175.76326111 -92.01394653 176.54684448 C-91.99879295 179.97925251 -91.9590139 183.15746987 -90.875 186.4375 C-89.555 186.7675 -88.235 187.0975 -86.875 187.4375 C-86.875 188.0975 -86.875 188.7575 -86.875 189.4375 C-85.1734375 189.4065625 -85.1734375 189.4065625 -83.4375 189.375 C-79.875 189.4375 -79.875 189.4375 -78.875 190.4375 C-77.09259746 190.55902317 -75.30579834 190.6171875 -73.51953125 190.6484375 C-72.42189453 190.67679688 -71.32425781 190.70515625 -70.19335938 190.734375 C-67.87580363 190.7860197 -65.55807384 190.83041724 -63.24023438 190.8671875 C-57.35775249 191.03202062 -52.99286352 191.22055721 -47.875 194.4375 C-47.215 194.4375 -46.555 194.4375 -45.875 194.4375 C-45.215 197.7375 -44.555 201.0375 -43.875 204.4375 C-43.215 204.4375 -42.555 204.4375 -41.875 204.4375 C-42.205 205.7575 -42.535 207.0775 -42.875 208.4375 C-42.215 208.4375 -41.555 208.4375 -40.875 208.4375 C-41.07351562 209.14390625 -41.27203125 209.8503125 -41.4765625 210.578125 C-42.57106409 218.43278348 -37.3026275 228.0972579 -32.875 234.4375 C-32.215 234.7675 -31.555 235.0975 -30.875 235.4375 C-30.75769531 236.00339844 -30.64039063 236.56929687 -30.51953125 237.15234375 C-29.59984168 240.41306133 -27.71821276 242.40679398 -25.5625 245 C-24.78261719 245.95003906 -24.00273438 246.90007812 -23.19921875 247.87890625 C-21.18144958 250.10014795 -19.31593066 251.72884854 -16.875 253.4375 C-15.76273656 254.38642405 -14.65841783 255.3447444 -13.5625 256.3125 C-9.09755216 260.15863844 -4.57681618 263.52581276 0.625 266.3125 C4.78546137 268.65216989 8.28089551 271.58663286 11.125 275.4375 C12.12763249 280.35039918 10.29439521 283.09870958 8.125 287.4375 C7.87303177 290.68850364 7.87303177 290.68850364 8.125 293.4375 C7.465 293.7675 6.805 294.0975 6.125 294.4375 C6.125 295.7575 6.125 297.0775 6.125 298.4375 C13.76509082 301.18706327 21.40040195 303.93350185 29.125 306.4375 C29.73698242 306.64439453 30.34896484 306.85128906 30.97949219 307.06445312 C33.10769643 307.78353578 35.24087287 308.48621132 37.375 309.1875 C38.06126465 309.42275391 38.7475293 309.65800781 39.45458984 309.90039062 C43.38424833 311.17155306 46.14894851 311.70120629 50.125 310.4375 C50.125 311.0975 50.125 311.7575 50.125 312.4375 C51.445 312.1075 52.765 311.7775 54.125 311.4375 C54.125 312.0975 54.125 312.7575 54.125 313.4375 C63.00525468 315.88183668 63.00525468 315.88183668 72.125 316.4375 C74.18894419 311.53907246 75.58354847 306.50725155 77.02734375 301.3984375 C78.40761242 297.67515048 79.81014744 296.19453632 83.1875 294.25 C85.125 293.4375 85.125 293.4375 87.125 293.4375 C87.125 292.7775 87.125 292.1175 87.125 291.4375 C88.053125 291.788125 88.98125 292.13875 89.9375 292.5 C95.00399235 293.99075804 99.97187163 293.12706871 105.125 292.4375 C105.125 293.0975 105.125 293.7575 105.125 294.4375 C126.8052792 296.39213014 148.35976689 296.61194953 170.1184082 296.45117188 C171.20506271 296.44452011 172.29171722 296.43786835 173.41130066 296.43101501 C175.46587484 296.41744879 177.52042499 296.39912117 179.5749054 296.3752594 C180.95732674 296.36558388 180.95732674 296.36558388 182.36767578 296.35571289 C183.1690799 296.34745987 183.97048401 296.33920685 184.7961731 296.33070374 C187.32153802 296.44651292 189.66150738 296.88401027 192.125 297.4375 C191.795 298.4275 191.465 299.4175 191.125 300.4375 C191.9604871 303.57470393 191.9604871 303.57470393 193.3125 306.9375 C193.73917969 308.0821875 194.16585938 309.226875 194.60546875 310.40625 C196.16315479 313.51361342 197.05413184 314.86807107 200.125 316.4375 C202.41972201 316.65927843 202.41972201 316.65927843 204.8125 316.25 C206.11380859 316.07597656 206.11380859 316.07597656 207.44140625 315.8984375 C211.37857902 315.22218366 215.24192811 314.37695288 219.125 313.4375 C219.125 312.7775 219.125 312.1175 219.125 311.4375 C220.445 311.7675 221.765 312.0975 223.125 312.4375 C223.125 311.7775 223.125 311.1175 223.125 310.4375 C223.88554687 310.66050781 224.64609375 310.88351562 225.4296875 311.11328125 C230.7369647 311.57893031 235.17878703 310.10104951 240.25 308.625 C241.73306641 308.21411133 241.73306641 308.21411133 243.24609375 307.79492188 C247.42516558 306.61584681 251.26046582 305.42961835 255.125 303.4375 C256.4492287 303.06965869 257.78113912 302.72547019 259.125 302.4375 C259.42625312 296.61327297 258.02792702 291.71805162 256.45898438 286.18359375 C254.69108266 279.62064634 254.69108266 279.62064634 256.125 276.4375 C259.59602754 272.31565479 263.71467038 269.60557107 268.234375 266.76953125 C270.25727619 265.56761784 270.25727619 265.56761784 271.125 263.4375 C271.70636719 263.30730469 272.28773438 263.17710937 272.88671875 263.04296875 C275.86196586 262.23814623 277.56836422 260.70873431 279.9375 258.75 C280.8140625 258.028125 281.690625 257.30625 282.59375 256.5625 C283.4290625 255.86125 284.264375 255.16 285.125 254.4375 C285.7953125 253.880625 286.465625 253.32375 287.15625 252.75 C297.44289768 244.18577921 297.44289768 244.18577921 305.125 233.4375 C305.78371094 232.29925781 306.44242187 231.16101563 307.12109375 229.98828125 C307.71180664 228.96250977 307.71180664 228.96250977 308.31445312 227.91601562 C309.13706809 226.48834741 309.96507836 225.06377243 310.79882812 223.64257812 C313.28112113 219.30565185 315.09437028 215.34379116 316.125 210.4375 C315.795 209.7775 315.465 209.1175 315.125 208.4375 C315.785 208.4375 316.445 208.4375 317.125 208.4375 C317.7762183 205.77204836 318.42107161 203.10530944 319.0625 200.4375 C319.24490234 199.69371094 319.42730469 198.94992187 319.61523438 198.18359375 C324.43362527 178.0339591 324.40818431 154.69030678 316.125 135.4375 C315.465 135.4375 314.805 135.4375 314.125 135.4375 C314.34542969 134.90125 314.56585938 134.365 314.79296875 133.8125 C315.27299076 130.37893083 314.0118964 128.48717826 312.4375 125.4375 C311.91800781 124.40625 311.39851563 123.375 310.86328125 122.3125 C309.26240343 119.40103475 309.26240343 119.40103475 306.98046875 117.3125 C304.9221683 115.23253323 304.72322041 114.21841649 304.125 111.4375 C302.80529466 109.25856202 302.80529466 109.25856202 301.1875 107.1875 C300.40052734 106.12789062 300.40052734 106.12789062 299.59765625 105.046875 C299.11167969 104.51578125 298.62570312 103.9846875 298.125 103.4375 C297.465 103.4375 296.805 103.4375 296.125 103.4375 C295.90328125 102.72722656 295.6815625 102.01695312 295.453125 101.28515625 C293.83893489 97.82414276 291.58094618 95.49026433 288.875 92.875 C287.47507812 91.48087891 287.47507812 91.48087891 286.046875 90.05859375 C283.20571924 87.5099099 280.30353471 85.53904389 277.125 83.4375 C275.97086607 82.46614443 274.82945366 81.47953122 273.69921875 80.48046875 C270.31151729 77.52306937 266.76875974 75.09389312 262.9375 72.75 C261.90882813 72.11880249 261.90882813 72.11880249 260.859375 71.47485352 C258.62221421 70.1158984 256.37529424 68.77458288 254.125 67.4375 C252.98490479 66.75349121 252.98490479 66.75349121 251.82177734 66.05566406 C234.79078319 55.93296681 216.60546536 48.28902696 197.125 44.4375 C196.23385498 44.25904541 195.34270996 44.08059082 194.42456055 43.89672852 C170.09118701 39.04881729 146.37902823 36.22212218 121.5625 36.25 C120.7320517 36.24993958 119.90160339 36.24987915 119.04598999 36.24981689 C102.96000576 36.26644204 87.18388071 36.99026301 71.35546875 40.03515625 C63.10143555 41.52406241 58.83156439 40.26996707 51.84375 35.4609375 C48.49128766 32.96585777 45.20570228 30.40389621 42 27.72265625 C40.09143816 26.15481932 40.09143816 26.15481932 37.125 26.4375 C36.795 25.7775 36.465 25.1175 36.125 24.4375 C34.72172007 23.39002127 33.27758126 22.39663667 31.8125 21.4375 C31.03261719 20.921875 30.25273437 20.40625 29.44921875 19.875 C26.04464195 17.76931216 23.02860772 16.31872488 19.125 15.4375 C18.2690625 15.18871094 17.413125 14.93992187 16.53125 14.68359375 C9.24874475 12.65741285 2.66617092 12.0764865 -4.875 12.4375 Z M346.125 86.4375 C344.78672099 89.11405801 344.91921444 91.26184052 344.875 94.25 C344.84921875 95.28769531 344.8234375 96.32539063 344.796875 97.39453125 C345.16947197 100.84992462 346.15008146 102.61413345 348.125 105.4375 C348.785 106.4275 349.445 107.4175 350.125 108.4375 C354.97761017 106.96701207 358.84866731 104.28124226 362.125 100.4375 C363.05584801 96.37561779 362.36883252 94.86630891 360.3125 91.25 C357.19487888 86.98836218 357.19487888 86.98836218 352.6875 84.625 C349.77253907 84.41171018 348.52211296 84.81088763 346.125 86.4375 Z " fill="#2D2D2D" transform="translate(128.875,79.5625)"/>
<path d="M0 0 C1.23556641 0.01740234 1.23556641 0.01740234 2.49609375 0.03515625 C3.32238281 0.04417969 4.14867187 0.05320312 5 0.0625 C5.63808594 0.07410156 6.27617187 0.08570312 6.93359375 0.09765625 C6.93359375 0.75765625 6.93359375 1.41765625 6.93359375 2.09765625 C7.94292969 2.04867188 8.95226562 1.9996875 9.9921875 1.94921875 C14.17375751 2.10670107 17.10380107 2.98125728 20.99609375 4.47265625 C22.16269531 4.91351563 23.32929688 5.354375 24.53125 5.80859375 C25.65402344 6.23398437 26.77679688 6.659375 27.93359375 7.09765625 C29.02027344 7.43925781 30.10695313 7.78085937 31.2265625 8.1328125 C34.03172049 9.13263072 35.40233523 10.30000844 37.3828125 12.48046875 C39.46177687 14.64845678 41.73000138 16.56435264 43.99609375 18.53515625 C47.70333341 21.84027333 50.43636326 24.83155416 52.93359375 29.09765625 C53.92359375 30.08765625 53.92359375 30.08765625 54.93359375 31.09765625 C56.0085868 32.89976661 57.02144513 34.73935814 57.99609375 36.59765625 C58.52332031 37.57734375 59.05054688 38.55703125 59.59375 39.56640625 C62.75799891 47.90600104 62.11591091 57.2295111 62.12109375 66.03515625 C62.13333984 67.15728516 62.14558594 68.27941406 62.15820312 69.43554688 C62.16013672 70.50869141 62.16207031 71.58183594 62.1640625 72.6875 C62.16817139 73.65550537 62.17228027 74.62351074 62.17651367 75.62084961 C61.93359375 78.09765625 61.93359375 78.09765625 59.93359375 81.09765625 C56.29754781 82.55207463 54.95208808 82.10516404 51.2578125 80.60546875 C50.16082031 80.10789062 49.06382812 79.6103125 47.93359375 79.09765625 C48.041875 77.55658203 48.041875 77.55658203 48.15234375 75.984375 C48.39946891 72.37109901 48.61706366 68.75675893 48.81787109 65.140625 C48.91548349 63.41737492 49.02652679 61.69489334 49.140625 59.97265625 C49.6160014 47.85936134 43.89547681 36.51678761 36.05859375 27.47265625 C27.05038076 19.04497254 13.92327753 14.15294336 1.7578125 14.078125 C-12.38389871 14.69298201 -24.89754203 20.36011287 -34.7890625 30.484375 C-36.28511877 32.18550753 -36.28511877 32.18550753 -37.06640625 35.09765625 C-37.83747302 36.29863435 -38.63171273 37.48487383 -39.44140625 38.66015625 C-45.38333862 48.15694412 -45.67470295 58.21100582 -46.06640625 69.09765625 C-47.5014418 69.46167994 -48.93957131 69.81352216 -50.37890625 70.16015625 C-51.17941406 70.35738281 -51.97992188 70.55460937 -52.8046875 70.7578125 C-55.06640625 71.09765625 -55.06640625 71.09765625 -58.06640625 70.09765625 C-58.52743075 48.48072975 -58.52743075 48.48072975 -55.06640625 38.09765625 C-54.40640625 38.09765625 -53.74640625 38.09765625 -53.06640625 38.09765625 C-52.80859375 37.21722656 -52.55078125 36.33679688 -52.28515625 35.4296875 C-47.41075978 22.10321253 -35.5859099 12.79323132 -23.26538086 6.70996094 C-17.52481453 4.0595278 -11.90594916 2.63291102 -5.6640625 1.5703125 C-3.05661444 1.09587458 -2.51115882 0.1186748 0 0 Z " fill="#2C2C2C" transform="translate(288.06640625,27.90234375)"/>
<path d="M0 0 C4.33858119 2.89238746 8.07948316 6.05206744 10 11 C10.63013591 16.09668751 10.47725947 21.45835764 8 26 C3.72100498 29.8605114 -1.02309111 31.84631914 -6.76171875 32.203125 C-11.83498083 31.74272425 -15.63363177 29.15615773 -19.4375 25.9375 C-22.10375949 22.63133823 -22.13621655 19.71904031 -22.125 15.625 C-22.12757813 14.68914062 -22.13015625 13.75328125 -22.1328125 12.7890625 C-21.88020566 7.48431877 -21.88020566 7.48431877 -21 5 C-14.96362558 0.39432471 -7.38731258 -3.09746316 0 0 Z " fill="#2E2E2E" transform="translate(151,185)"/>
<path d="M0 0 C0.7425 0.763125 1.485 1.52625 2.25 2.3125 C4.4263323 4.4393702 6.52167796 6.2559956 9 8 C7.65925162 12.02224515 5.2724102 13.39542862 2 16 C1.34 16.66 0.68 17.32 0 18 C-5.48571429 19.25714286 -5.48571429 19.25714286 -8 18 C-8.9640592 10.40803383 -8.9640592 10.40803383 -6.21875 6.3984375 C-4.2158015 4.1768573 -2.17454521 2.05319782 0 0 Z " fill="#232323" transform="translate(525,184)"/>
<path d="M0 0 C3.71599191 -0.20086443 4.77208445 -0.1519437 8 2 C6.76210371 5.71368887 5.14775123 6.77354181 2 9 C1.34 9 0.68 9 0 9 C-1.125 6.75 -1.125 6.75 -2 4 C-1.125 1.6875 -1.125 1.6875 0 0 Z " fill="#2D2D2D" transform="translate(526,190)"/>
<path d="M0 0 C0 0.66 0 1.32 0 2 C-1.0725 2.2475 -2.145 2.495 -3.25 2.75 C-7.1164993 4.0388331 -8.26218126 5.17092064 -11 8 C-13.75 8.75 -13.75 8.75 -16 9 C-16 7.35 -16 5.7 -16 4 C-13.89748139 3.32815382 -11.79292237 2.66269032 -9.6875 2 C-8.51574219 1.62875 -7.34398437 1.2575 -6.13671875 0.875 C-3 0 -3 0 0 0 Z " fill="#3C3C3C" transform="translate(282,30)"/>
<path d="M0 0 C-1.375 1.5 -1.375 1.5 -3 3 C-3.66 3 -4.32 3 -5 3 C-5.33 3.99 -5.66 4.98 -6 6 C-7.32 5.67 -8.64 5.34 -10 5 C-9.875 3.125 -9.875 3.125 -9 1 C-5.3931275 -0.64661571 -3.8148779 -1.27162597 0 0 Z " fill="#3C3C3C" transform="translate(379,386)"/>
<path d="M0 0 C3.3 0 6.6 0 10 0 C9.34 1.32 8.68 2.64 8 4 C6.02 4 4.04 4 2 4 C1.34 2.68 0.68 1.36 0 0 Z " fill="#242424" transform="translate(54,195)"/>
<path d="M0 0 C1 3 1 3 0.0625 5.1875 C-0.4634375 6.0846875 -0.4634375 6.0846875 -1 7 C-2.32 6.67 -3.64 6.34 -5 6 C-4.625 3.5625 -4.625 3.5625 -4 1 C-2 0 -2 0 0 0 Z " fill="#323232" transform="translate(341,101)"/>
<path d="M0 0 C8.91 0 17.82 0 27 0 C27 0.33 27 0.66 27 1 C18.09 1 9.18 1 0 1 C0 0.67 0 0.34 0 0 Z " fill="#000000" transform="translate(237,117)"/>
<path d="M0 0 C4.62 0 9.24 0 14 0 C13.01 0.495 13.01 0.495 12 1 C12 1.66 12 2.32 12 3 C7.18550592 2.51855059 4.39828259 2.1991413 0 0 Z " fill="#3F3F3F" transform="translate(492,207)"/>
<path d="M0 0 C8.25 0 16.5 0 25 0 C25 0.33 25 0.66 25 1 C16.75 1 8.5 1 0 1 C0 0.67 0 0.34 0 0 Z " fill="#191919" transform="translate(237,102)"/>
<path d="M0 0 C2.31 0.33 4.62 0.66 7 1 C6.34 2.32 5.68 3.64 5 5 C3.68 5 2.36 5 1 5 C0.67 3.35 0.34 1.7 0 0 Z " fill="#464646" transform="translate(336,113)"/>
<path d="M0 0 C0.66 0 1.32 0 2 0 C1.6875 2.375 1.6875 2.375 1 5 C0.01 5.66 -0.98 6.32 -2 7 C-2.66 6.67 -3.32 6.34 -4 6 C-2.84826645 3.53199953 -1.95216435 1.95216435 0 0 Z " fill="#3C3C3C" transform="translate(212,372)"/>
<path d="M0 0 C2.125 0.375 2.125 0.375 4 1 C3.01 1.495 3.01 1.495 2 2 C2 2.66 2 3.32 2 4 C1.01 4.33 0.02 4.66 -1 5 C-1.66 5.66 -2.32 6.32 -3 7 C-2.25 2.25 -2.25 2.25 0 0 Z " fill="#252525" transform="translate(31,205)"/>
<path d="M0 0 C1.67542976 0.28604898 3.34385343 0.61781233 5 1 C5 1.66 5 2.32 5 3 C3.02 3.33 1.04 3.66 -1 4 C-1 1 -1 1 0 0 Z " fill="#232323" transform="translate(416,158)"/>
<path d="M0 0 C-0.33 0.99 -0.66 1.98 -1 3 C-2.875 3.875 -2.875 3.875 -5 4 C-6.75 2.5625 -6.75 2.5625 -8 1 C-5.23735711 0.40267181 -2.83967231 0 0 0 Z " fill="#505050" transform="translate(342,394)"/>
<path d="M0 0 C2.97 0 5.94 0 9 0 C9 0.66 9 1.32 9 2 C8.34 2 7.68 2 7 2 C6.67 2.66 6.34 3.32 6 4 C4.02 3.01 2.04 2.02 0 1 C0 0.67 0 0.34 0 0 Z " fill="#3F3F3F" transform="translate(307,44)"/>
<path d="M0 0 C0.556875 0.226875 1.11375 0.45375 1.6875 0.6875 C-0.6225 2.0075 -2.9325 3.3275 -5.3125 4.6875 C-5.9725 4.0275 -6.6325 3.3675 -7.3125 2.6875 C-2.88173077 -0.38942308 -2.88173077 -0.38942308 0 0 Z " fill="#242424" transform="translate(352.3125,392.3125)"/>
<path d="M0 0 C0.33 0.99 0.66 1.98 1 3 C-0.65 4.65 -2.3 6.3 -4 8 C-4 7.01 -4 6.02 -4 5 C-3.34 5 -2.68 5 -2 5 C-2.33 4.01 -2.66 3.02 -3 2 C-2.01 1.34 -1.02 0.68 0 0 Z " fill="#393939" transform="translate(436,326)"/>
<path d="M0 0 C3.3 0.33 6.6 0.66 10 1 C7.8614515 3.1385485 6.86724686 3.42655063 4 4 C3.67 3.01 3.34 2.02 3 1 C2.01 0.67 1.02 0.34 0 0 Z " fill="#191919" transform="translate(213,104)"/>
<path d="M0 0 C2.64 0 5.28 0 8 0 C8 0.33 8 0.66 8 1 C5.36 1 2.72 1 0 1 C0 0.67 0 0.34 0 0 Z " fill="#505050" transform="translate(270,103)"/>
<path d="M0 0 C2.64 0 5.28 0 8 0 C8 0.33 8 0.66 8 1 C5.36 1 2.72 1 0 1 C0 0.67 0 0.34 0 0 Z " fill="#606060" transform="translate(223,103)"/>
<path d="M0 0 C0.33 0 0.66 0 1 0 C1 1.98 1 3.96 1 6 C0.67 6 0.34 6 0 6 C0 4.02 0 2.04 0 0 Z " fill="#FFFFFF" transform="translate(459,169)"/>
<path d="M0 0 C0.33 0 0.66 0 1 0 C1 1.65 1 3.3 1 5 C0.67 5 0.34 5 0 5 C0 3.35 0 1.7 0 0 Z " fill="#4C4C4C" transform="translate(138,123)"/>
<path d="M0 0 C1.65 0 3.3 0 5 0 C5 0.33 5 0.66 5 1 C3.35 1 1.7 1 0 1 C0 0.67 0 0.34 0 0 Z " fill="#333333" transform="translate(275,118)"/>
<path d="M0 0 C4 1 4 1 4 1 Z " fill="#7F7F7F" transform="translate(235,99)"/>
<path d="M0 0 C1 4 1 4 1 4 Z " fill="#404040" transform="translate(243,81)"/>
<path d="M0 0 C3 1 3 1 3 1 Z " fill="#2A2A2A" transform="translate(355,389)"/>
<path d="" fill="#FFFFFF" transform="translate(0,0)"/>
<path d="" fill="#7F7F7F" transform="translate(0,0)"/>
<path d="M0 0 C3 1 3 1 3 1 Z " fill="#7F7F7F" transform="translate(333,112)"/>
<path d="M0 0 C3 1 3 1 3 1 Z " fill="#AAAAAA" transform="translate(326,110)"/>
<path d="" fill="#555555" transform="translate(0,0)"/>
<path d="" fill="#2A2A2A" transform="translate(0,0)"/>
<path d="" fill="#000000" transform="translate(0,0)"/>
<path d="" fill="#7F7F7F" transform="translate(0,0)"/>
<path d="" fill="#2A2A2A" transform="translate(0,0)"/>
<path d="" fill="#404040" transform="translate(0,0)"/>
<path d="" fill="#FFFFFF" transform="translate(0,0)"/>
<path d="M0 0 C2 1 2 1 2 1 Z " fill="#000000" transform="translate(174,389)"/>
<path d="M0 0 C2 1 2 1 2 1 Z " fill="#7F7F7F" transform="translate(140,378)"/>
<path d="" fill="#7F7F7F" transform="translate(0,0)"/>
<path d="" fill="#FFFFFF" transform="translate(0,0)"/>
<path d="" fill="#404040" transform="translate(0,0)"/>
<path d="" fill="#BFBFBF" transform="translate(0,0)"/>
<path d="M0 0 C2 1 2 1 2 1 Z " fill="#FFFFFF" transform="translate(40,282)"/>
<path d="" fill="#FFFFFF" transform="translate(0,0)"/>
<path d="M0 0 C2 1 2 1 2 1 Z " fill="#7F7F7F" transform="translate(520,204)"/>
<path d="M0 0 C2 1 2 1 2 1 Z " fill="#7F7F7F" transform="translate(476,204)"/>
<path d="M0 0 C2 1 2 1 2 1 Z " fill="#000000" transform="translate(494,194)"/>
<path d="" fill="#7F7F7F" transform="translate(0,0)"/>
<path d="" fill="#7F7F7F" transform="translate(0,0)"/>
<path d="" fill="#7F7F7F" transform="translate(0,0)"/>
<path d="M0 0 C2 1 2 1 2 1 Z " fill="#7F7F7F" transform="translate(476,166)"/>
<path d="" fill="#000000" transform="translate(0,0)"/>
<path d="" fill="#404040" transform="translate(0,0)"/>
<path d="" fill="#404040" transform="translate(0,0)"/>
<path d="" fill="#404040" transform="translate(0,0)"/>
<path d="M0 0 C2 1 2 1 2 1 Z " fill="#404040" transform="translate(330,111)"/>
<path d="M0 0 C2 1 2 1 2 1 Z " fill="#FFFFFF" transform="translate(340,110)"/>
<path d="M0 0 C2 1 2 1 2 1 Z " fill="#FFFFFF" transform="translate(338,109)"/>
<path d="M0 0 C2 1 2 1 2 1 Z " fill="#FFFFFF" transform="translate(322,109)"/>
<path d="" fill="#FFFFFF" transform="translate(0,0)"/>
<path d="M0 0 C2 1 2 1 2 1 Z " fill="#FFFFFF" transform="translate(231,100)"/>
<path d="" fill="#7F7F7F" transform="translate(0,0)"/>
<path d="" fill="#404040" transform="translate(0,0)"/>
<path d="" fill="#404040" transform="translate(0,0)"/>
<path d="" fill="#000000" transform="translate(0,0)"/>
<path d="" fill="#000000" transform="translate(0,0)"/>
<path d="" fill="#000000" transform="translate(0,0)"/>
<path d="" fill="#FFFFFF" transform="translate(0,0)"/>
<path d="" fill="#FFFFFF" transform="translate(0,0)"/>
<path d="" fill="#808080" transform="translate(0,0)"/>
<path d="" fill="#FFFFFF" transform="translate(0,0)"/>
<path d="" fill="#FFFFFF" transform="translate(0,0)"/>
<path d="" fill="#FFFFFF" transform="translate(0,0)"/>
<path d="" fill="#000000" transform="translate(0,0)"/>
<path d="" fill="#000000" transform="translate(0,0)"/>
<path d="" fill="#FFFFFF" transform="translate(0,0)"/>
<path d="" fill="#FFFFFF" transform="translate(0,0)"/>
<path d="" fill="#FFFFFF" transform="translate(0,0)"/>
<path d="" fill="#FFFFFF" transform="translate(0,0)"/>
<path d="" fill="#FFFFFF" transform="translate(0,0)"/>
<path d="" fill="#FFFFFF" transform="translate(0,0)"/>
<path d="" fill="#FFFFFF" transform="translate(0,0)"/>
<path d="" fill="#FFFFFF" transform="translate(0,0)"/>
<path d="" fill="#808080" transform="translate(0,0)"/>
<path d="" fill="#000000" transform="translate(0,0)"/>
<path d="" fill="#FFFFFF" transform="translate(0,0)"/>
<path d="" fill="#FFFFFF" transform="translate(0,0)"/>
<path d="" fill="#000000" transform="translate(0,0)"/>
<path d="" fill="#FFFFFF" transform="translate(0,0)"/>
<path d="" fill="#FFFFFF" transform="translate(0,0)"/>
<path d="" fill="#FFFFFF" transform="translate(0,0)"/>
<path d="" fill="#FFFFFF" transform="translate(0,0)"/>
<path d="" fill="#000000" transform="translate(0,0)"/>
<path d="" fill="#000000" transform="translate(0,0)"/>
<path d="" fill="#FFFFFF" transform="translate(0,0)"/>
<path d="" fill="#000000" transform="translate(0,0)"/>
<path d="" fill="#000000" transform="translate(0,0)"/>
<path d="" fill="#FFFFFF" transform="translate(0,0)"/>
<path d="" fill="#000000" transform="translate(0,0)"/>
<path d="" fill="#FFFFFF" transform="translate(0,0)"/>
<path d="" fill="#FFFFFF" transform="translate(0,0)"/>
<path d="" fill="#808080" transform="translate(0,0)"/>
<path d="" fill="#FFFFFF" transform="translate(0,0)"/>
<path d="" fill="#FFFFFF" transform="translate(0,0)"/>
<path d="" fill="#FFFFFF" transform="translate(0,0)"/>
<path d="" fill="#808080" transform="translate(0,0)"/>
<path d="" fill="#000000" transform="translate(0,0)"/>
<path d="" fill="#000000" transform="translate(0,0)"/>
<path d="" fill="#FFFFFF" transform="translate(0,0)"/>
<path d="" fill="#000000" transform="translate(0,0)"/>
<path d="" fill="#FFFFFF" transform="translate(0,0)"/>
<path d="" fill="#FFFFFF" transform="translate(0,0)"/>
<path d="" fill="#FFFFFF" transform="translate(0,0)"/>
<path d="" fill="#FFFFFF" transform="translate(0,0)"/>
<path d="" fill="#000000" transform="translate(0,0)"/>
<path d="" fill="#808080" transform="translate(0,0)"/>
<path d="" fill="#000000" transform="translate(0,0)"/>
<path d="" fill="#FFFFFF" transform="translate(0,0)"/>
<path d="" fill="#FFFFFF" transform="translate(0,0)"/>
<path d="" fill="#FFFFFF" transform="translate(0,0)"/>
<path d="" fill="#FFFFFF" transform="translate(0,0)"/>
<path d="" fill="#000000" transform="translate(0,0)"/>
<path d="" fill="#000000" transform="translate(0,0)"/>
<path d="" fill="#000000" transform="translate(0,0)"/>
<path d="" fill="#FFFFFF" transform="translate(0,0)"/>
<path d="" fill="#000000" transform="translate(0,0)"/>
<path d="" fill="#FFFFFF" transform="translate(0,0)"/>
<path d="" fill="#000000" transform="translate(0,0)"/>
<path d="" fill="#000000" transform="translate(0,0)"/>
<path d="" fill="#000000" transform="translate(0,0)"/>
<path d="" fill="#FFFFFF" transform="translate(0,0)"/>
<path d="" fill="#000000" transform="translate(0,0)"/>
<path d="" fill="#000000" transform="translate(0,0)"/>
<path d="" fill="#808080" transform="translate(0,0)"/>
<path d="" fill="#808080" transform="translate(0,0)"/>
<path d="" fill="#FFFFFF" transform="translate(0,0)"/>
<path d="" fill="#FFFFFF" transform="translate(0,0)"/>
<path d="" fill="#000000" transform="translate(0,0)"/>
<path d="" fill="#000000" transform="translate(0,0)"/>
<path d="" fill="#808080" transform="translate(0,0)"/>
<path d="" fill="#000000" transform="translate(0,0)"/>
<path d="" fill="#000000" transform="translate(0,0)"/>
<path d="" fill="#FFFFFF" transform="translate(0,0)"/>
<path d="" fill="#FFFFFF" transform="translate(0,0)"/>
<path d="" fill="#FFFFFF" transform="translate(0,0)"/>
<path d="" fill="#808080" transform="translate(0,0)"/>
<path d="" fill="#000000" transform="translate(0,0)"/>
<path d="" fill="#FFFFFF" transform="translate(0,0)"/>
<path d="" fill="#000000" transform="translate(0,0)"/>
<path d="" fill="#FFFFFF" transform="translate(0,0)"/>
<path d="" fill="#000000" transform="translate(0,0)"/>
<path d="" fill="#000000" transform="translate(0,0)"/>
<path d="" fill="#FFFFFF" transform="translate(0,0)"/>
<path d="" fill="#FFFFFF" transform="translate(0,0)"/>
<path d="" fill="#FFFFFF" transform="translate(0,0)"/>
<path d="" fill="#FFFFFF" transform="translate(0,0)"/>
<path d="" fill="#FFFFFF" transform="translate(0,0)"/>
<path d="" fill="#FFFFFF" transform="translate(0,0)"/>
<path d="" fill="#000000" transform="translate(0,0)"/>
<path d="" fill="#000000" transform="translate(0,0)"/>
<path d="" fill="#FFFFFF" transform="translate(0,0)"/>
<path d="" fill="#FFFFFF" transform="translate(0,0)"/>
<path d="" fill="#000000" transform="translate(0,0)"/>
<path d="" fill="#FFFFFF" transform="translate(0,0)"/>
<path d="" fill="#000000" transform="translate(0,0)"/>
<path d="" fill="#000000" transform="translate(0,0)"/>
<path d="" fill="#FFFFFF" transform="translate(0,0)"/>
<path d="" fill="#000000" transform="translate(0,0)"/>
<path d="" fill="#000000" transform="translate(0,0)"/>
<path d="" fill="#000000" transform="translate(0,0)"/>
<path d="" fill="#000000" transform="translate(0,0)"/>
<path d="" fill="#808080" transform="translate(0,0)"/>
<path d="" fill="#000000" transform="translate(0,0)"/>
<path d="" fill="#000000" transform="translate(0,0)"/>
<path d="" fill="#000000" transform="translate(0,0)"/>
<path d="" fill="#000000" transform="translate(0,0)"/>
<path d="" fill="#000000" transform="translate(0,0)"/>
<path d="" fill="#FFFFFF" transform="translate(0,0)"/>
<path d="" fill="#000000" transform="translate(0,0)"/>
<path d="" fill="#FFFFFF" transform="translate(0,0)"/>
<path d="" fill="#FFFFFF" transform="translate(0,0)"/>
<path d="" fill="#000000" transform="translate(0,0)"/>
<path d="" fill="#808080" transform="translate(0,0)"/>
<path d="" fill="#FFFFFF" transform="translate(0,0)"/>
<path d="" fill="#000000" transform="translate(0,0)"/>
<path d="" fill="#808080" transform="translate(0,0)"/>
<path d="" fill="#000000" transform="translate(0,0)"/>
<path d="" fill="#FFFFFF" transform="translate(0,0)"/>
<path d="" fill="#000000" transform="translate(0,0)"/>
<path d="" fill="#FFFFFF" transform="translate(0,0)"/>
<path d="" fill="#000000" transform="translate(0,0)"/>
<path d="" fill="#FFFFFF" transform="translate(0,0)"/>
<path d="" fill="#000000" transform="translate(0,0)"/>
<path d="" fill="#000000" transform="translate(0,0)"/>
<path d="" fill="#FFFFFF" transform="translate(0,0)"/>
<path d="" fill="#FFFFFF" transform="translate(0,0)"/>
<path d="" fill="#FFFFFF" transform="translate(0,0)"/>
<path d="" fill="#000000" transform="translate(0,0)"/>
<path d="" fill="#FFFFFF" transform="translate(0,0)"/>
<path d="" fill="#000000" transform="translate(0,0)"/>
<path d="" fill="#FFFFFF" transform="translate(0,0)"/>
<path d="" fill="#FFFFFF" transform="translate(0,0)"/>
<path d="" fill="#000000" transform="translate(0,0)"/>
<path d="" fill="#000000" transform="translate(0,0)"/>
<path d="" fill="#000000" transform="translate(0,0)"/>
<path d="" fill="#000000" transform="translate(0,0)"/>
<path d="" fill="#000000" transform="translate(0,0)"/>
<path d="" fill="#FFFFFF" transform="translate(0,0)"/>
<path d="" fill="#FFFFFF" transform="translate(0,0)"/>
<path d="" fill="#FFFFFF" transform="translate(0,0)"/>
<path d="" fill="#FFFFFF" transform="translate(0,0)"/>
<path d="" fill="#808080" transform="translate(0,0)"/>
<path d="" fill="#000000" transform="translate(0,0)"/>
<path d="" fill="#000000" transform="translate(0,0)"/>
<path d="" fill="#FFFFFF" transform="translate(0,0)"/>
<path d="" fill="#FFFFFF" transform="translate(0,0)"/>
<path d="" fill="#000000" transform="translate(0,0)"/>
<path d="" fill="#FFFFFF" transform="translate(0,0)"/>
<path d="" fill="#FFFFFF" transform="translate(0,0)"/>
<path d="" fill="#FFFFFF" transform="translate(0,0)"/>
<path d="" fill="#FFFFFF" transform="translate(0,0)"/>
<path d="" fill="#FFFFFF" transform="translate(0,0)"/>
<path d="" fill="#FFFFFF" transform="translate(0,0)"/>
<path d="" fill="#FFFFFF" transform="translate(0,0)"/>
<path d="" fill="#FFFFFF" transform="translate(0,0)"/>
<path d="" fill="#FFFFFF" transform="translate(0,0)"/>
<path d="" fill="#000000" transform="translate(0,0)"/>
</svg>
